<?xml version="1.0" encoding="UTF-8" standalone="no"?>
<!DOCTYPE svg PUBLIC "-//W3C//DTD SVG 1.1//EN" "http://www.w3.org/Graphics/SVG/1.1/DTD/svg11.dtd">
<svg width="100%" height="100%" viewBox="0 0 576 576" version="1.1" xmlns="http://www.w3.org/2000/svg" xmlns:xlink="http://www.w3.org/1999/xlink" xml:space="preserve" xmlns:serif="http://www.serif.com/" style="fill-rule:evenodd;clip-rule:evenodd;stroke-linejoin:round;stroke-miterlimit:2;">
    <g transform="matrix(1,0,0,1,0,32)">
        <path d="M473.1,107C516.3,142.2 544,195.9 544,256C544,316.1 516.3,369.8 473.1,405C462.8,413.4 447.7,411.8 439.3,401.5C430.9,391.2 432.5,376.1 442.8,367.7C475.3,341.3 496,301.1 496,256C496,210.9 475.3,170.7 442.8,144.2C432.5,135.8 431,120.7 439.3,110.4C447.6,100.1 462.8,98.6 473.1,106.9L473.1,107Z"/>
    </g>
    <g transform="matrix(1,0,0,1,0,32)">
        <path d="M412.6,181.5C434.1,199.1 448,225.9 448,256C448,286.1 434.1,312.9 412.6,330.5C402.3,338.9 387.2,337.3 378.8,327C370.4,316.7 372,301.6 382.3,293.2C393.1,284.4 400,271 400,256C400,241 393.1,227.6 382.3,218.7C372,210.3 370.5,195.2 378.8,184.9C387.1,174.6 402.3,173.1 412.6,181.4L412.6,181.5Z"/>
    </g>
    <g transform="matrix(1,0,0,1,0,32)">
        <path d="M301.1,34.8C312.6,40 320,51.4 320,64L320,448C320,460.6 312.6,472 301.1,477.2C289.6,482.4 276.1,480.3 266.7,471.9L131.8,352L64,352C28.7,352 0,323.3 0,288L0,224C0,188.7 28.7,160 64,160L131.8,160L266.7,40.1C276.1,31.7 289.6,29.7 301.1,34.8Z"/>
    </g>
</svg>
