<?xml version="1.0" encoding="UTF-8" standalone="no"?>
<!DOCTYPE svg PUBLIC "-//W3C//DTD SVG 1.1//EN" "http://www.w3.org/Graphics/SVG/1.1/DTD/svg11.dtd">
<svg width="100%" height="100%" viewBox="0 0 576 576" version="1.1" xmlns="http://www.w3.org/2000/svg" xmlns:xlink="http://www.w3.org/1999/xlink" xml:space="preserve" xmlns:serif="http://www.serif.com/" style="fill-rule:evenodd;clip-rule:evenodd;stroke-linejoin:round;stroke-miterlimit:2;">
    <g transform="matrix(1,0,0,1,0,32)">
        <path d="M301.1,34.8C312.6,40 320,51.4 320,64L320,448C320,460.6 312.6,472 301.1,477.2C289.6,482.4 276.1,480.3 266.7,471.9L131.8,352L64,352C28.7,352 0,323.3 0,288L0,224C0,188.7 28.7,160 64,160L131.8,160L266.7,40.1C276.1,31.7 289.6,29.7 301.1,34.8ZM425,167L480,222L535,167C544.4,157.6 559.6,157.6 568.9,167C578.2,176.4 578.3,191.6 568.9,200.9L513.9,255.9L568.9,310.9C578.3,320.3 578.3,335.5 568.9,344.8C559.5,354.1 544.3,354.2 535,344.8L480,289.8L425,344.8C415.6,354.2 400.4,354.2 391.1,344.8C381.8,335.4 381.7,320.2 391.1,310.9L446.1,255.9L391.1,200.9C381.7,191.5 381.7,176.3 391.1,167C400.5,157.7 415.7,157.6 425,167Z" style="fill-rule:nonzero;"/>
    </g>
</svg>
